<svg width="42" height="42" viewBox="0 0 42 42" fill="none" xmlns="http://www.w3.org/2000/svg">
<rect x="1" y="1" width="40" height="40" rx="20" fill="white"/>
<path d="M22 16H20V20H16V22H20V26H22V22H26V20H22V16ZM21 11C15.48 11 11 15.48 11 21C11 26.52 15.48 31 21 31C26.52 31 31 26.52 31 21C31 15.48 26.52 11 21 11ZM21 29C16.59 29 13 25.41 13 21C13 16.59 16.59 13 21 13C25.41 13 29 16.59 29 21C29 25.41 25.41 29 21 29Z" fill="#DADEE6"/>
<rect x="1" y="1" width="40" height="40" rx="20" stroke="#EBEEF2" stroke-width="2" stroke-dasharray="4 4"/>
</svg>
