<svg width="20" height="20" viewBox="0 0 20 20" fill="none" xmlns="http://www.w3.org/2000/svg">
<path d="M10.975 1.66667H5.00001C4.08334 1.66667 3.33334 2.41667 3.33334 3.33334V16.6667C3.33334 17.5833 4.08334 18.3333 5.00001 18.3333H15C15.9167 18.3333 16.6667 17.5833 16.6667 16.6667V7.35834C16.6667 6.91667 16.4917 6.49167 16.175 6.18334L12.15 2.15834C11.8417 1.84167 11.4167 1.66667 10.975 1.66667ZM13.3333 12.5C13.3333 14.45 11.6583 16.0083 9.67501 15.8167C7.94168 15.65 6.66668 14.1 6.66668 12.3583V8.03334C6.66668 6.94167 7.45001 5.95001 8.53334 5.84167C9.78334 5.71667 10.8333 6.69167 10.8333 7.91667V11.6667C10.8333 12.125 10.4583 12.5 10 12.5C9.54168 12.5 9.16668 12.125 9.16668 11.6667V7.91667C9.16668 7.68334 8.98334 7.50001 8.75001 7.50001C8.51668 7.50001 8.33334 7.68334 8.33334 7.91667V12.4083C8.33334 13.2417 8.90001 14.0083 9.71668 14.1417C10.7667 14.3167 11.6667 13.5083 11.6667 12.5V10C11.6667 9.54167 12.0417 9.16667 12.5 9.16667C12.9583 9.16667 13.3333 9.54167 13.3333 10V12.5ZM11.6667 5.83334V3.33334L15 6.66667H12.5C12.0417 6.66667 11.6667 6.29167 11.6667 5.83334Z" fill="#A855F7"/>
</svg>
