<svg width="24" height="24" viewBox="0 0 24 24" fill="none" xmlns="http://www.w3.org/2000/svg">
<path d="M17.9988 14.9992V18.9992C17.9988 19.5492 17.5488 19.9992 16.9988 19.9992H4.99878C4.44878 19.9992 3.99878 19.5492 3.99878 18.9992V6.99924C3.99878 6.44924 4.44878 5.99924 4.99878 5.99924H8.01878C8.56878 5.99924 9.01878 5.54924 9.01878 4.99924C9.01878 4.44924 8.56878 3.99924 8.01878 3.99924H3.99878C2.89878 3.99924 1.99878 4.89924 1.99878 5.99924V19.9992C1.99878 21.0992 2.89878 21.9992 3.99878 21.9992H17.9988C19.0988 21.9992 19.9988 21.0992 19.9988 19.9992V14.9992C19.9988 14.4492 19.5488 13.9992 18.9988 13.9992C18.4488 13.9992 17.9988 14.4492 17.9988 14.9992ZM15.4988 17.9992H6.51878C6.09878 17.9992 5.86878 17.5192 6.12878 17.1892L7.86878 14.9592C8.06878 14.7092 8.44878 14.6992 8.64878 14.9492L10.2088 16.8292L12.5588 13.8092C12.7588 13.5492 13.1588 13.5492 13.3488 13.8192L15.8988 17.2092C16.1488 17.5292 15.9088 17.9992 15.4988 17.9992ZM19.2988 8.88924C19.7788 8.11924 20.0488 7.21924 19.9888 6.22924C19.8588 4.07924 18.1488 2.25924 16.0188 2.02924C13.2988 1.72924 10.9988 3.83924 10.9988 6.49924C10.9988 8.98924 13.0088 10.9992 15.4888 10.9992C16.3688 10.9992 17.1888 10.7392 17.8788 10.2992L20.2888 12.7092C20.6788 13.0992 21.3188 13.0992 21.7088 12.7092C22.0988 12.3192 22.0988 11.6792 21.7088 11.2892L19.2988 8.88924ZM15.4988 8.99924C14.1188 8.99924 12.9988 7.87924 12.9988 6.49924C12.9988 5.11924 14.1188 3.99924 15.4988 3.99924C16.8788 3.99924 17.9988 5.11924 17.9988 6.49924C17.9988 7.87924 16.8788 8.99924 15.4988 8.99924Z" fill="#3B82F6"/>
</svg>
