<svg width="24" height="24" viewBox="0 0 24 24" fill="none" xmlns="http://www.w3.org/2000/svg">
<path d="M4.20374 18H15.2037C15.7537 18 16.2037 17.55 16.2037 17C16.2037 16.45 15.7537 16 15.2037 16H4.20374C3.65374 16 3.20374 16.45 3.20374 17C3.20374 17.55 3.65374 18 4.20374 18ZM4.20374 13H12.2037C12.7537 13 13.2037 12.55 13.2037 12C13.2037 11.45 12.7537 11 12.2037 11H4.20374C3.65374 11 3.20374 11.45 3.20374 12C3.20374 12.55 3.65374 13 4.20374 13ZM3.20374 7C3.20374 7.55 3.65374 8 4.20374 8H15.2037C15.7537 8 16.2037 7.55 16.2037 7C16.2037 6.45 15.7537 6 15.2037 6H4.20374C3.65374 6 3.20374 6.45 3.20374 7ZM20.5037 14.88L17.6237 12L20.5037 9.12C20.8937 8.73 20.8937 8.1 20.5037 7.71C20.1137 7.32 19.4837 7.32 19.0937 7.71L15.5037 11.3C15.1137 11.69 15.1137 12.32 15.5037 12.71L19.0937 16.3C19.4837 16.69 20.1137 16.69 20.5037 16.3C20.8837 15.91 20.8937 15.27 20.5037 14.88Z" fill="#B8BFCC"/>
</svg>
